<?xml version="1.0" standalone="no"?>
<!DOCTYPE svg PUBLIC "-//W3C//DTD SVG 20010904//EN"
 "http://www.w3.org/TR/2001/REC-SVG-20010904/DTD/svg10.dtd">
<svg version="1.0" xmlns="http://www.w3.org/2000/svg"
 width="216.000000pt" height="216.000000pt" viewBox="0 0 216.000000 216.000000"
 preserveAspectRatio="xMidYMid meet">

<g transform="translate(0.000000,216.000000) scale(0.100000,-0.100000)"
fill="#000000" stroke="none">
<path d="M1333 1299 l-43 -65 0 -170 c0 -93 3 -179 6 -192 9 -32 54 -52 119
-52 l55 0 0 40 c0 39 -1 40 -33 40 -53 0 -57 10 -57 157 l0 133 45 0 45 0 0
40 0 40 -44 0 -45 0 -3 47 -3 47 -42 -65z"/>
<path d="M179 1293 c-51 -46 -70 -82 -71 -136 -1 -76 35 -122 149 -192 85 -52
111 -85 95 -120 -16 -36 -49 -45 -158 -45 l-94 0 0 -56 0 -56 124 4 c107 3
129 7 172 29 54 28 88 71 105 131 9 35 7 46 -13 86 -23 47 -43 64 -184 152
-30 19 -64 49 -75 66 -23 37 -25 102 -4 130 17 22 19 44 5 44 -5 0 -28 -17
-51 -37z"/>
<path d="M690 1230 l0 -40 74 0 c58 0 75 -3 80 -16 14 -36 7 -41 -61 -47 -95
-7 -103 -19 -103 -152 0 -143 6 -150 130 -150 124 0 120 -8 120 222 0 231 5
223 -140 223 l-100 0 0 -40z m158 -234 c6 -68 -4 -86 -43 -86 l-35 0 0 58 c0
32 3 62 7 66 4 4 21 6 38 4 27 -3 30 -7 33 -42z"/>
<path d="M980 1045 l0 -225 45 0 45 0 0 186 0 185 38 -3 37 -3 5 -180 5 -180
45 0 45 0 3 165 c3 192 -1 224 -33 256 -22 22 -32 24 -130 24 l-105 0 0 -225z"/>
<path d="M1520 1250 c-18 -18 -20 -33 -20 -194 0 -96 3 -182 6 -191 12 -30 60
-45 149 -45 l85 0 0 40 0 40 -59 0 c-78 0 -91 6 -91 41 0 28 1 29 51 29 50 0
87 12 101 34 4 6 8 59 8 119 0 141 -5 147 -125 147 -72 0 -88 -3 -105 -20z
m135 -130 l0 -65 -32 -3 -33 -3 0 64 c0 35 3 67 7 71 4 4 19 6 33 4 24 -3 25
-6 25 -68z"/>
<path d="M1800 1045 l0 -225 45 0 45 0 0 186 0 185 38 -3 37 -3 3 -182 2 -183
45 0 45 0 0 191 c0 257 -1 258 -157 259 l-103 0 0 -225z"/>
</g>
</svg>
